<svg xmlns="http://www.w3.org/2000/svg" viewBox="0 0 416.3 213.23"><defs><style>.cls-1{fill:#905eaa;}.cls-2{fill:#2d6ea4;stroke:#2d6ea4;stroke-miterlimit:10;}</style></defs><g id="Capa_2" data-name="Capa 2"><g id="Capa_1-2" data-name="Capa 1"><path class="cls-1" d="M147.06,164.46,158,81.1c.29-2.28.46-3.76.52-4.41.12-1.91-1.52-2.87-4.9-2.87h-4.47c-2.4,0-3.56-.53-3.5-1.59.05-1.23,1.22-1.87,3.49-1.93a111,111,0,0,0,14.66-1.39,22.88,22.88,0,0,1,4-.49c1.11,0,1.66.63,1.66,1.89l-.09,1-12.27,94.94a37,37,0,0,0-.43,4.43q0,4.59,3.33,4.59c1.93,0,4-.95,6.22-2.83a26.68,26.68,0,0,0,5.87-7.32c.65-1.15,1.34-1.72,2.06-1.72,1.19,0,1.79.57,1.79,1.71q0,1.22-2.16,4.85a47.76,47.76,0,0,1-4.27,6.16,31.92,31.92,0,0,1-7.8,6.48q-4.46,2.65-7.62,2.65-7.58,0-7.58-13.33A58.78,58.78,0,0,1,147.06,164.46Z"/><path class="cls-1" d="M220.4,163.7q6.53-15.75,7.34-27.39a16.28,16.28,0,0,0-1.47-7.79,11.94,11.94,0,0,1-1.37-5.41q.34-5,4.82-5a4.91,4.91,0,0,1,4.4,2.78,12.71,12.71,0,0,1,1.29,7.3q-.48,6.72-5.13,22A213.15,213.15,0,0,1,221,175.7q-8.79,19.26-17.58,28.39t-18.59,9.14a11.8,11.8,0,0,1-7.41-2.4q-3.12-2.4-2.89-5.57.34-5,4.81-5a10,10,0,0,1,5.46,2.13q3.59,2.54,6,2.54,6.75,0,15.45-11.81,6.59-8.86,7-14.11.21-3-2.3-11.65a147.67,147.67,0,0,0-6-16.74q-8.7-20.76-15.19-20.75-5.78,0-8,7.36l-.79,2.62a1.57,1.57,0,0,1-1.59,1.39q-1.67,0-1.41-3.6a24.74,24.74,0,0,1,4.71-13.42q4.17-5.56,9.43-5.57,5.44,0,11.73,8.61t12.06,24Z"/><path class="cls-1" d="M263.78,139.23l11.51,12.52A18.46,18.46,0,0,1,280.15,166q-.58,8.26-8,14a27.6,27.6,0,0,1-17.48,5.77,25.66,25.66,0,0,1-12.81-2.93q-5.18-2.93-4.89-7.08.36-5.13,5.66-5.13c2.06,0,3.88,1.37,5.45,4.09l1.61,3a7.26,7.26,0,0,0,6.85,3.93,14.48,14.48,0,0,0,9.12-3.08,9.88,9.88,0,0,0,4.29-7.27q.46-6.65-6-13.47l-9.11-9.49q-6.26-6.56-5.74-14a16,16,0,0,1,6.61-12.4q6-4.47,16.12-4.46,14,0,13.48,7.66c-.24,3.4-2.19,5.11-5.84,5.11a5.11,5.11,0,0,1-4.42-2.54l-1.72-2.54a7.78,7.78,0,0,0-6.94-3.76c-5,0-7.63,2.55-8,7.65Q258.1,133,263.78,139.23Z"/><path class="cls-1" d="M315.72,139.23l11.51,12.52A18.46,18.46,0,0,1,332.09,166q-.58,8.26-8,14a27.61,27.61,0,0,1-17.49,5.77,25.64,25.64,0,0,1-12.8-2.93q-5.18-2.93-4.89-7.08.36-5.13,5.66-5.13c2.06,0,3.88,1.37,5.45,4.09l1.61,3a7.26,7.26,0,0,0,6.85,3.93,14.48,14.48,0,0,0,9.12-3.08,9.88,9.88,0,0,0,4.29-7.27q.47-6.65-6-13.47l-9.11-9.49q-6.25-6.56-5.74-14a16,16,0,0,1,6.61-12.4q6-4.47,16.12-4.46,14,0,13.48,7.66c-.24,3.4-2.19,5.11-5.84,5.11a5.11,5.11,0,0,1-4.42-2.54l-1.72-2.54a7.78,7.78,0,0,0-6.94-3.76q-7.46,0-8,7.65Q310,133,315.72,139.23Z"/><path class="cls-1" d="M389.09,167.21q-16.53,18.6-32.57,18.59a12.4,12.4,0,0,1-10.14-4.58q-3.75-4.58-3.24-11.87.67-9.66,6.35-20.59a70.48,70.48,0,0,1,14-18.86q12.48-11.72,25.2-11.71a33.64,33.64,0,0,1,9.72,1.59,11,11,0,0,0,3.12.59q2.55,0,6.7-5.68c1.38-1.87,2.43-2.77,3.14-2.72s1,.57,1,1.56a4.27,4.27,0,0,1-.36,1.39c-.15.38-.63,1.91-1.46,4.59l-2.64,8.93q-2.39,7.71-5,19.76A143.76,143.76,0,0,0,400,164.67q-.71,10.17,2.71,10.17c1.17,0,2.73-.9,4.7-2.71a22.78,22.78,0,0,0,4.65-5.81q1.42-2.7,2.82-2.7c1,0,1.45.57,1.37,1.71q-.36,5.22-7.84,12.48t-12.37,7.26q-3.42,0-4.83-3.67T389.09,167.21Zm-.53-45.5q-9.29,0-18.36,9.82a62.1,62.1,0,0,0-10.5,16.33q-4.54,9.87-5.08,17.56-.86,12.2,10.83,12.2,7.41,0,15.59-7.42T391,154.5c.63-3.05,1.25-5.61,1.88-7.68l2.12-7.36c1.24-4.09,2.12-6.85,2.64-8.26a16.33,16.33,0,0,0,.91-4.09c.09-1.37-.9-2.6-3-3.72A14.44,14.44,0,0,0,388.56,121.71Z"/><path class="cls-1" d="M128,177.44c-2.88-1.51-4.56-3.41-5-5.72s-.22-7.79.74-16.47l1.08-11.43L140.36,5.36Q140.91.58,139,.57c-1.24,0-3,1.6-5.33,4.79L28.08,154.05l-6.14,9q-7.73,11.17-13.35,13l-4.2,1.33a6.31,6.31,0,0,0-4.17,3.8Q-.71,184,2.28,184a21.81,21.81,0,0,0,3.29-.37,89.32,89.32,0,0,1,12.92-1,57.49,57.49,0,0,1,11.93,1.09,14.1,14.1,0,0,0,2.42.24c1.85,0,3-.67,3.56-2q1-2.66-4.81-4.52-6-2-3.66-8.79,1.62-4.78,7.21-12.77L59,121.81c1.43-2.13,2.63-3.42,3.62-3.86s3-.67,6-.67h39.69c2.62,0,4.21.25,4.75.73s.66,1.93.36,4.32l-.47,4.51-3.09,28.95a55.53,55.53,0,0,1-2.47,11.56q-2.57,7.56-10.72,10.09c-3.32,1.08-5.21,2.31-5.67,3.66Q90,184,93.87,184a22.73,22.73,0,0,0,2.82-.37l2.63-.36a78.41,78.41,0,0,1,10.51-.6,61.12,61.12,0,0,1,12.25,1.09,16,16,0,0,0,2.52.24q3.95,0,5-3.13C130.13,179.29,129.59,178.16,128,177.44ZM123,35.3c-.17.89-.38,2.36-.62,4.4l-6,55c-.18,1.86-.33,3.42-.43,4.66a12.69,12.69,0,0,1-.45,3.32q-1.08,3.19-7,3.2H72.57q-1.72,0-1.23-1.47a9.49,9.49,0,0,1,1.11-2.12l1.81-2.53,42.83-60c1.09-1.51,2-2.88,2.84-4.13q1.95-2.93,2.58-3.06C123.18,32.42,123.34,33.35,123,35.3Z"/><path class="cls-2" d="M393,90.74,354,60.38a.76.76,0,0,0-.6-.15l-3.7.59L375,1.58a.77.77,0,0,0-1.36-.73l-39.5,60.71L321.88,54.3,315.4,33a.75.75,0,0,0-.35-.45L261.77,1.45C260.39.71,259,.38,258.53.59s-.66.39.73,6.69c1.19,5.41,9.55,42,11.25,49.39l-4.13-.47-7.63-.93a.75.75,0,0,0-.72.31L239.94,80.22a.78.78,0,0,0,.06,1,.76.76,0,0,0,.48.24.78.78,0,0,0,.51-.11l23.23-14.77,22.51,46.35a.83.83,0,0,0,.53.42h.08a.78.78,0,0,0,.57-.16l3.43-2.71,2.13,4.4h0c0,.1,1,2.59,2.27.92l11.61-14.33,85.24-9.36C393.93,92,393.46,91.08,393,90.74ZM353.3,61.81,389.89,90.3l-18-1.91-58.18-6.57L336.94,64.7l11.55-2.12h.06ZM335.21,64,294.76,93.48l3.36-8,.64-1.52,14-33.28Zm-35.52,2.21L308.94,55l.67-.81L297.8,82.24l-6.12-6.18.1-.19L298.29,68ZM370,9.16l-22.15,52-5.18,1-5.77,1.08c-.32-.17-1.24-.76-1.44-.92ZM314,33.77,319.86,53l-7.06-4.07h0a.94.94,0,0,0-.15-.06l-.1,0h-.38l-.06,0a.32.32,0,0,0-.09,0l-.07.06a.36.36,0,0,0-.09.08.1.1,0,0,0,0,0L299.18,64.42,260.69,2.63l.17.06ZM260.77,7c-.15-.73-.29-1.36-.41-1.91l37.78,60.65-1,1.19L290.53,75l-18.32-17.8C271.14,52.45,262,12.61,260.77,7ZM259,56.86l6.77.83L268,62.31l-24.38,15.5Zm31.6,52.21-2.9,2.3L265.54,65.73l3.16-2,16.06,33.17Zm-4.38-12.69L269.81,62.2h0l-2.06-4.28,3.21.36a.61.61,0,0,0,.07.1l26.11,25.44-4.89,11.63a.66.66,0,0,0-.06.31v0h0l.95,14.84ZM295,114.23l-.1-.08-1.1-17.06,8.86,4.76a.61.61,0,0,0,.25.08h0a.54.54,0,0,0,.18,0l2-.22ZM306.87,100h0l-3.66.4-8.74-4.7,17.33-12.5,65.43,7.35,8,.85Z"/></g></g></svg>